# xmcd CD database file
#
# Track frame offsets:
#	150
#	17738
#	45368
#	72318
#	103068
#
# Disc length: 1562 seconds
#
# Revision: 0
# Processed by: cddbd v1.5.2PL0 Copyright (c) Steve Scherf et al.
# Submitted via: CDex 1.51
#
DISCID=39061805
DTITLE=Deep Forest - Sweet Lullaby
DYEAR=1993
DGENRE=New Age
TTITLE0=Original Mix
TTITLE1=(remix)
TTITLE2=Q-Bass Mix
TTITLE3=Round The World Mix
TTITLE4=Bonus A La Efx
EXTD=YEAR: 1993
EXTT0=
EXTT1=
EXTT2=
EXTT3=
EXTT4=
PLAYORDER=
